<svg width="40" height="30" viewBox="0 0 40 30" fill="none" xmlns="http://www.w3.org/2000/svg">
<path d="M29.4858 11.5319L28.2741 12.4331L29.7842 12.4331L38.8406 12.4331C39.17 12.4331 39.5 12.7328 39.5 13.1831V28.75C39.5 29.2003 39.17 29.5 38.8406 29.5H23.0949C22.7655 29.5 22.4355 29.2003 22.4355 28.75V7.58624C22.4355 7.32397 22.5554 7.09201 22.7349 6.95851L31.2548 0.622381C31.5381 0.411716 31.9331 0.473938 32.148 0.809818C32.2288 0.936106 32.2742 1.08974 32.2742 1.25011V9.05318C32.2742 9.31545 32.1542 9.54741 31.9747 9.68092L32.2731 10.0821L31.9747 9.68092L29.4858 11.5319ZM7.55032 11.5319L6.33851 12.4331L7.8487 12.4331L16.9051 12.4331C17.2345 12.4331 17.5645 12.7328 17.5645 13.1831V28.75C17.5645 29.2003 17.2345 29.5 16.9051 29.5H1.15942C0.829987 29.5 0.5 29.2003 0.5 28.75V7.58624C0.5 7.32397 0.619957 7.09201 0.799465 6.95851L9.31933 0.622381C9.6026 0.411716 9.9976 0.473938 10.2125 0.809818C10.2933 0.936106 10.3387 1.08974 10.3387 1.25011V9.05318C10.3387 9.31545 10.2188 9.54741 10.0392 9.68092L7.55032 11.5319Z" stroke="url(#paint0_linear_2828_34242)"/>
<defs>
<linearGradient id="paint0_linear_2828_34242" x1="19.942" y1="1.29153e-05" x2="20.0768" y2="29.9999" gradientUnits="userSpaceOnUse">
<stop stop-color="white"/>
<stop offset="1" stop-color="#2B2C32" stop-opacity="0"/>
</linearGradient>
</defs>
</svg>
